<?xml version="1.0" encoding="UTF-8"?>
<svg xmlns="http://www.w3.org/2000/svg" width="400" height="120" viewBox="0 0 400 120">
  <defs>
    <linearGradient id="brainGradient" x1="0%" y1="0%" x2="100%" y2="100%">
      <stop offset="0%" style="stop-color:#E63E8B" />
      <stop offset="50%" style="stop-color:#B485FF" />
      <stop offset="100%" style="stop-color:#357BD8" />
    </linearGradient>
  </defs>
  
  <!-- Brain icon -->
  <g transform="translate(20, 10) scale(0.8)">
    <!-- Brain waves left side -->
    <path d="M15,60 C5,50 5,70 15,60" stroke="#E63E8B" stroke-width="3" stroke-linecap="round" />
    <path d="M25,60 C15,45 15,75 25,60" stroke="#E63E8B" stroke-width="3" stroke-linecap="round" />
    
    <!-- Brain left hemisphere -->
    <path d="M60,30 C45,30 35,45 35,60 C35,75 45,90 60,90" stroke="#E63E8B" stroke-width="4" stroke-linecap="round" fill="none" />
    <path d="M50,40 C45,40 40,42 40,45 C40,48 45,50 50,50 C55,50 60,48 60,45" stroke="#E63E8B" stroke-width="4" stroke-linecap="round" fill="none" />
    <path d="M50,55 C45,55 40,57 40,60 C40,63 45,65 50,65 C55,65 60,63 60,60" stroke="#B485FF" stroke-width="4" stroke-linecap="round" fill="none" />
    <path d="M50,70 C45,70 40,72 40,75 C40,78 45,80 50,80 C55,80 60,78 60,75" stroke="#357BD8" stroke-width="4" stroke-linecap="round" fill="none" />
    
    <!-- Brain right hemisphere -->
    <path d="M60,30 C75,30 85,45 85,60 C85,75 75,90 60,90" stroke="#357BD8" stroke-width="4" stroke-linecap="round" fill="none" />
    <path d="M70,40 C75,40 80,42 80,45 C80,48 75,50 70,50 C65,50 60,48 60,45" stroke="#357BD8" stroke-width="4" stroke-linecap="round" fill="none" />
    <path d="M70,55 C75,55 80,57 80,60 C80,63 75,65 70,65 C65,65 60,63 60,60" stroke="#B485FF" stroke-width="4" stroke-linecap="round" fill="none" />
    <path d="M70,70 C75,70 80,72 80,75 C80,78 75,80 70,80 C65,80 60,78 60,75" stroke="#E63E8B" stroke-width="4" stroke-linecap="round" fill="none" />
    
    <!-- Brain waves right side -->
    <path d="M105,60 C115,50 115,70 105,60" stroke="#357BD8" stroke-width="3" stroke-linecap="round" />
    <path d="M95,60 C105,45 105,75 95,60" stroke="#357BD8" stroke-width="3" stroke-linecap="round" />
  </g>
  
  <!-- Cortexuum Text -->
  <text x="140" y="65" font-family="Arial, sans-serif" font-weight="bold" font-size="35" fill="#333">CORTEXUUM</text>
  <text x="140" y="90" font-family="Arial, sans-serif" font-size="16" fill="#666">AI MARKETING AGENCY</text>
</svg>