<?xml version="1.0" encoding="UTF-8"?>
<svg width="240" height="60" xmlns="http://www.w3.org/2000/svg">
  <style>
    .logo-text { font-family: Arial, sans-serif; font-weight: bold; }
    .subtitle { font-family: Arial, sans-serif; font-size: 10px; }
  </style>
  <g>
    <circle cx="30" cy="30" r="25" fill="#1E40AF" />
    <path d="M30,15 C25,15 20,20 20,30 S25,45 30,45 M30,15 C35,15 40,20 40,30 S35,45 30,45" 
          stroke="white" stroke-width="3" fill="none" />
    <path d="M30,22 C27,22 25,24 25,25 C25,26 27,28 30,28 M30,22 C33,22 35,24 35,25 C35,26 33,28 30,28" 
          stroke="white" stroke-width="2" fill="none" />
    <path d="M30,32 C27,32 25,34 25,35 C25,36 27,38 30,38 M30,32 C33,32 35,34 35,35 C35,36 33,38 30,38" 
          stroke="white" stroke-width="2" fill="none" />
  </g>
  <text x="65" y="35" class="logo-text" fill="#1E40AF" font-size="24">CORTEXUUM</text>
  <text x="65" y="48" class="subtitle" fill="#666">AI MARKETING AGENCY</text>
</svg>