<?xml version="1.0" encoding="UTF-8" standalone="no"?>
<svg width="512" height="512" viewBox="0 0 512 512" fill="none" xmlns="http://www.w3.org/2000/svg">
  <rect width="512" height="512" fill="black"/>
  <g transform="translate(70, 100)">
    <!-- Left brain - pink -->
    <path d="M150,60 C120,90 100,150 110,200 C120,250 130,280 150,300 C170,280 180,250 190,200 C200,150 180,90 150,60Z" fill="#E63E8B"/>
    <path d="M150,60 C130,80 115,130 120,170 C125,210 135,250 150,270 C165,250 175,210 180,170 C185,130 170,80 150,60Z" fill="#C22B6B"/>
    
    <!-- Right brain - orange -->
    <path d="M220,60 C250,90 270,150 260,200 C250,250 240,280 220,300 C200,280 190,250 180,200 C170,150 190,90 220,60Z" fill="#FF9052"/>
    <path d="M220,60 C240,80 255,130 250,170 C245,210 235,250 220,270 C205,250 195,210 190,170 C185,130 200,80 220,60Z" fill="#E46B2B"/>
    
    <!-- Waves -->
    <path d="M50,180 C40,160 30,140 20,120" stroke="#4FD4D4" stroke-width="10" stroke-linecap="round"/>
    <path d="M10,180 C0,160 -10,140 -20,120" stroke="#4FD4D4" stroke-width="10" stroke-linecap="round"/>
    <path d="M90,200 C70,170 50,140 30,110" stroke="#4FD4D4" stroke-width="10" stroke-linecap="round"/>
    
    <path d="M320,180 C330,160 340,140 350,120" stroke="#4FD4D4" stroke-width="10" stroke-linecap="round"/>
    <path d="M360,180 C370,160 380,140 390,120" stroke="#4FD4D4" stroke-width="10" stroke-linecap="round"/>
    <path d="M280,200 C300,170 320,140 340,110" stroke="#4FD4D4" stroke-width="10" stroke-linecap="round"/>
  </g>
</svg>